<svg width="646" height="188" viewBox="0 0 646 188" fill="none" xmlns="http://www.w3.org/2000/svg">
<path d="M611.461 120.505C597.17 120.505 585.664 107.978 585.664 92.6749C585.664 77.3715 597.3 64.845 611.461 64.845C625.621 64.845 637.266 77.3715 637.266 92.6749C637.266 107.978 625.76 120.505 611.461 120.505ZM637.388 57.498V68.6317C631.06 60.9191 621.826 56.1052 611.461 56.1052C592.487 56.1052 577.178 72.4271 577.178 92.5443C577.178 112.662 592.609 128.975 611.461 128.975C621.835 128.975 631.069 124.17 637.388 116.448V127.582H645.865V57.498H637.388Z" fill="#090B09"/>
<path d="M544.297 70.6601V57.4982H535.82V127.591H544.297V93.5543C544.297 80.9059 553.018 69.7722 565.168 66.9866C568.205 66.3512 571.495 65.9682 575.168 65.9682V57.4895C570.99 57.4895 566.943 57.8638 563.41 58.7517C555.698 60.6494 549.119 64.8191 544.315 70.6514H544.306L544.297 70.6601Z" fill="#090B09"/>
<path d="M490.798 120.505C475.367 120.505 462.973 107.979 462.973 92.6752C462.973 77.3718 475.497 64.8453 490.798 64.8453C506.098 64.8453 518.622 77.3718 518.622 92.6752C518.622 107.979 506.229 120.505 490.798 120.505ZM490.798 56.2361C470.693 56.2361 454.366 72.5579 454.366 92.6664C454.366 112.775 470.684 129.106 490.798 129.106C510.911 129.106 527.221 112.784 527.221 92.6664C527.221 72.5492 510.902 56.2361 490.798 56.2361Z" fill="#090B09"/>
<path d="M426.663 65.9861H448.796V57.5075H426.663V41.9517H418.186V57.5075H408.569V65.9861H418.186V127.6H448.796V119.121H426.663V65.9948V65.9861Z" fill="#090B09"/>
<path d="M368.49 70.6601V57.4982H360.013V127.591H368.49V93.5543C368.49 80.9059 377.211 69.7722 389.361 66.9866C392.398 66.3512 395.688 65.9682 399.361 65.9682V57.4895C395.183 57.4895 391.136 57.8638 387.603 58.7517C379.883 60.6494 373.312 64.8191 368.499 70.6514L368.49 70.6601Z" fill="#090B09"/>
<path d="M315.739 64.8366C329.151 64.8366 340.405 75.0911 342.424 88.3662H289.177C291.074 74.9518 302.336 64.8366 315.739 64.8366ZM315.739 120.383C302.328 120.383 291.074 110.129 289.055 96.8536H351.162V92.6752C351.162 72.6885 335.217 56.3667 315.748 56.3667C296.279 56.3667 280.334 72.6885 280.334 92.6752C280.334 112.662 296.279 128.984 315.748 128.984C329.787 128.984 342.432 120.505 348.124 107.352H338.638C333.712 115.439 325.113 120.514 315.748 120.383H315.739Z" fill="#090B09"/>
<path d="M239.847 120.383C225.043 120.383 212.91 107.856 212.91 92.5531C212.91 77.2498 225.051 64.7233 239.847 64.7233C249.464 64.7233 257.932 69.9027 262.737 77.7546H272.223C266.662 65.1063 254.26 56.2446 239.847 56.2446C220.36 56.2446 204.433 72.5665 204.433 92.5531C204.433 112.54 220.378 128.862 239.847 128.862C253.885 128.862 266.531 120.392 272.223 107.352H262.737C257.932 115.447 249.334 120.383 239.847 120.383Z" fill="#090B09"/>
<path d="M164.515 48.4336V3H3V48.4336" stroke="#090B09" stroke-width="5.57468" stroke-miterlimit="10"/>
<path d="M83.7603 3L3 139.284" stroke="#090B09" stroke-width="5.57468" stroke-miterlimit="10"/>
<path d="M83.7548 3.00024L164.515 139.284" stroke="#090B09" stroke-width="5.57468" stroke-miterlimit="10"/>
<path d="M83.7604 93.8563V3.00024" stroke="#090B09" stroke-width="5.57468" stroke-miterlimit="10"/>
<path d="M83.7604 184.707V93.8562" stroke="#090B09" stroke-width="5.57468" stroke-miterlimit="10"/>
<path d="M83.7548 93.8567L3 139.285" stroke="#090B09" stroke-width="5.57468" stroke-miterlimit="10"/>
<path d="M3 48.4338L83.7715 93.8563L164.521 48.4338" stroke="#090B09" stroke-width="5.57468" stroke-miterlimit="10"/>
<path d="M164.515 139.284L83.7548 93.8562" stroke="#090B09" stroke-width="5.57468" stroke-miterlimit="10"/>
<path d="M164.515 48.4338V139.284L83.7715 184.707L3 139.284V48.4338" stroke="#090B09" stroke-width="5.57468" stroke-miterlimit="10"/>
<path d="M3 64.143V48.4336L83.7603 3" stroke="#090B09" stroke-width="5.57468" stroke-miterlimit="10"/>
<path d="M164.515 64.1433V48.4339L83.7548 3.00024" stroke="#090B09" stroke-width="5.57468" stroke-miterlimit="10"/>
</svg>
